<mxfile host="Electron" agent="Mozilla/5.0 (Windows NT 10.0; Win64; x64) AppleWebKit/537.36 (KHTML, like Gecko) draw.io/26.0.16 Chrome/132.0.6834.196 Electron/34.2.0 Safari/537.36" version="26.0.16">
  <diagram name="Page-1" id="kGcfdEgu2AfaMnEGp_mp">
    <mxGraphModel dx="683" dy="398" grid="1" gridSize="10" guides="1" tooltips="1" connect="1" arrows="1" fold="1" page="1" pageScale="1" pageWidth="3300" pageHeight="4681" math="0" shadow="0">
      <root>
        <mxCell id="0" />
        <mxCell id="1" parent="0" />
        <mxCell id="lHrtD9bcTlEtg_5Hjy0B-1" value="" style="endArrow=none;html=1;rounded=0;" parent="1" edge="1">
          <mxGeometry width="50" height="50" relative="1" as="geometry">
            <mxPoint x="320" y="1240" as="sourcePoint" />
            <mxPoint x="320" y="160" as="targetPoint" />
          </mxGeometry>
        </mxCell>
        <mxCell id="lHrtD9bcTlEtg_5Hjy0B-2" value="" style="endArrow=classic;html=1;rounded=0;startArrow=none;startFill=0;endFill=1;" parent="1" edge="1">
          <mxGeometry width="50" height="50" relative="1" as="geometry">
            <mxPoint x="120" y="280" as="sourcePoint" />
            <mxPoint x="1200" y="280" as="targetPoint" />
          </mxGeometry>
        </mxCell>
        <mxCell id="lHrtD9bcTlEtg_5Hjy0B-3" value="" style="endArrow=classic;html=1;rounded=0;endFill=1;" parent="1" edge="1">
          <mxGeometry width="50" height="50" relative="1" as="geometry">
            <mxPoint x="120" y="400" as="sourcePoint" />
            <mxPoint x="1200" y="400" as="targetPoint" />
          </mxGeometry>
        </mxCell>
        <mxCell id="lHrtD9bcTlEtg_5Hjy0B-4" value="" style="endArrow=classic;html=1;rounded=0;endFill=1;" parent="1" edge="1">
          <mxGeometry width="50" height="50" relative="1" as="geometry">
            <mxPoint x="120" y="520" as="sourcePoint" />
            <mxPoint x="1200" y="520" as="targetPoint" />
          </mxGeometry>
        </mxCell>
        <mxCell id="lHrtD9bcTlEtg_5Hjy0B-5" value="" style="endArrow=classic;html=1;rounded=0;endFill=1;" parent="1" edge="1">
          <mxGeometry width="50" height="50" relative="1" as="geometry">
            <mxPoint x="120" y="640" as="sourcePoint" />
            <mxPoint x="1200" y="640" as="targetPoint" />
          </mxGeometry>
        </mxCell>
        <mxCell id="lHrtD9bcTlEtg_5Hjy0B-6" value="" style="endArrow=classic;html=1;rounded=0;endFill=1;" parent="1" edge="1">
          <mxGeometry width="50" height="50" relative="1" as="geometry">
            <mxPoint x="120" y="760" as="sourcePoint" />
            <mxPoint x="1200" y="760" as="targetPoint" />
          </mxGeometry>
        </mxCell>
        <mxCell id="lHrtD9bcTlEtg_5Hjy0B-8" value="" style="endArrow=classic;html=1;rounded=0;endFill=1;" parent="1" edge="1">
          <mxGeometry width="50" height="50" relative="1" as="geometry">
            <mxPoint x="120" y="880" as="sourcePoint" />
            <mxPoint x="1200" y="880" as="targetPoint" />
          </mxGeometry>
        </mxCell>
        <mxCell id="lHrtD9bcTlEtg_5Hjy0B-9" value="" style="endArrow=classic;html=1;rounded=0;endFill=1;" parent="1" edge="1">
          <mxGeometry width="50" height="50" relative="1" as="geometry">
            <mxPoint x="120" y="1000" as="sourcePoint" />
            <mxPoint x="1200" y="1000" as="targetPoint" />
          </mxGeometry>
        </mxCell>
        <mxCell id="lHrtD9bcTlEtg_5Hjy0B-10" value="" style="endArrow=classic;html=1;rounded=0;endFill=1;" parent="1" edge="1">
          <mxGeometry width="50" height="50" relative="1" as="geometry">
            <mxPoint x="120" y="1200" as="sourcePoint" />
            <mxPoint x="1200" y="1200" as="targetPoint" />
          </mxGeometry>
        </mxCell>
        <mxCell id="lHrtD9bcTlEtg_5Hjy0B-16" value="" style="group" parent="1" vertex="1" connectable="0">
          <mxGeometry x="320" y="220" width="200" height="60" as="geometry" />
        </mxCell>
        <mxCell id="lHrtD9bcTlEtg_5Hjy0B-11" value="" style="shape=parallelogram;perimeter=parallelogramPerimeter;whiteSpace=wrap;html=1;fixedSize=1;fillColor=none;" parent="lHrtD9bcTlEtg_5Hjy0B-16" vertex="1">
          <mxGeometry width="40" height="60" as="geometry" />
        </mxCell>
        <mxCell id="lHrtD9bcTlEtg_5Hjy0B-12" value="" style="shape=parallelogram;perimeter=parallelogramPerimeter;whiteSpace=wrap;html=1;fixedSize=1;fillColor=none;" parent="lHrtD9bcTlEtg_5Hjy0B-16" vertex="1">
          <mxGeometry x="20" width="40" height="60" as="geometry" />
        </mxCell>
        <mxCell id="lHrtD9bcTlEtg_5Hjy0B-13" value="" style="shape=parallelogram;perimeter=parallelogramPerimeter;whiteSpace=wrap;html=1;fixedSize=1;fillColor=none;" parent="lHrtD9bcTlEtg_5Hjy0B-16" vertex="1">
          <mxGeometry x="40" width="120" height="60" as="geometry" />
        </mxCell>
        <mxCell id="lHrtD9bcTlEtg_5Hjy0B-14" value="" style="shape=parallelogram;perimeter=parallelogramPerimeter;whiteSpace=wrap;html=1;fixedSize=1;fillColor=none;" parent="lHrtD9bcTlEtg_5Hjy0B-16" vertex="1">
          <mxGeometry x="140" width="40" height="60" as="geometry" />
        </mxCell>
        <mxCell id="lHrtD9bcTlEtg_5Hjy0B-15" value="" style="shape=parallelogram;perimeter=parallelogramPerimeter;whiteSpace=wrap;html=1;fixedSize=1;fillColor=none;" parent="lHrtD9bcTlEtg_5Hjy0B-16" vertex="1">
          <mxGeometry x="160" width="40" height="60" as="geometry" />
        </mxCell>
        <mxCell id="lHrtD9bcTlEtg_5Hjy0B-55" value="" style="group" parent="1" vertex="1" connectable="0">
          <mxGeometry x="320" y="340" width="260" height="60" as="geometry" />
        </mxCell>
        <mxCell id="lHrtD9bcTlEtg_5Hjy0B-25" value="" style="shape=parallelogram;perimeter=parallelogramPerimeter;whiteSpace=wrap;html=1;fixedSize=1;fillColor=none;" parent="lHrtD9bcTlEtg_5Hjy0B-55" vertex="1">
          <mxGeometry width="40" height="60" as="geometry" />
        </mxCell>
        <mxCell id="lHrtD9bcTlEtg_5Hjy0B-26" value="" style="shape=parallelogram;perimeter=parallelogramPerimeter;whiteSpace=wrap;html=1;fixedSize=1;fillColor=none;" parent="lHrtD9bcTlEtg_5Hjy0B-55" vertex="1">
          <mxGeometry x="20" width="40" height="60" as="geometry" />
        </mxCell>
        <mxCell id="lHrtD9bcTlEtg_5Hjy0B-27" value="" style="shape=parallelogram;perimeter=parallelogramPerimeter;whiteSpace=wrap;html=1;fixedSize=1;fillColor=none;" parent="lHrtD9bcTlEtg_5Hjy0B-55" vertex="1">
          <mxGeometry x="40" width="180" height="60" as="geometry" />
        </mxCell>
        <mxCell id="lHrtD9bcTlEtg_5Hjy0B-28" value="" style="shape=parallelogram;perimeter=parallelogramPerimeter;whiteSpace=wrap;html=1;fixedSize=1;fillColor=none;" parent="lHrtD9bcTlEtg_5Hjy0B-55" vertex="1">
          <mxGeometry x="200" width="40" height="60" as="geometry" />
        </mxCell>
        <mxCell id="lHrtD9bcTlEtg_5Hjy0B-29" value="" style="shape=parallelogram;perimeter=parallelogramPerimeter;whiteSpace=wrap;html=1;fixedSize=1;fillColor=none;" parent="lHrtD9bcTlEtg_5Hjy0B-55" vertex="1">
          <mxGeometry x="220" width="40" height="60" as="geometry" />
        </mxCell>
        <mxCell id="lHrtD9bcTlEtg_5Hjy0B-56" value="" style="group" parent="1" vertex="1" connectable="0">
          <mxGeometry x="320" y="460" width="320" height="60" as="geometry" />
        </mxCell>
        <mxCell id="lHrtD9bcTlEtg_5Hjy0B-30" value="" style="shape=parallelogram;perimeter=parallelogramPerimeter;whiteSpace=wrap;html=1;fixedSize=1;fillColor=none;" parent="lHrtD9bcTlEtg_5Hjy0B-56" vertex="1">
          <mxGeometry width="40" height="60" as="geometry" />
        </mxCell>
        <mxCell id="lHrtD9bcTlEtg_5Hjy0B-31" value="" style="shape=parallelogram;perimeter=parallelogramPerimeter;whiteSpace=wrap;html=1;fixedSize=1;fillColor=none;" parent="lHrtD9bcTlEtg_5Hjy0B-56" vertex="1">
          <mxGeometry x="20" width="40" height="60" as="geometry" />
        </mxCell>
        <mxCell id="lHrtD9bcTlEtg_5Hjy0B-32" value="" style="shape=parallelogram;perimeter=parallelogramPerimeter;whiteSpace=wrap;html=1;fixedSize=1;fillColor=none;" parent="lHrtD9bcTlEtg_5Hjy0B-56" vertex="1">
          <mxGeometry x="40" width="240" height="60" as="geometry" />
        </mxCell>
        <mxCell id="lHrtD9bcTlEtg_5Hjy0B-33" value="" style="shape=parallelogram;perimeter=parallelogramPerimeter;whiteSpace=wrap;html=1;fixedSize=1;fillColor=none;" parent="lHrtD9bcTlEtg_5Hjy0B-56" vertex="1">
          <mxGeometry x="260" width="40" height="60" as="geometry" />
        </mxCell>
        <mxCell id="lHrtD9bcTlEtg_5Hjy0B-34" value="" style="shape=parallelogram;perimeter=parallelogramPerimeter;whiteSpace=wrap;html=1;fixedSize=1;fillColor=none;" parent="lHrtD9bcTlEtg_5Hjy0B-56" vertex="1">
          <mxGeometry x="280" width="40" height="60" as="geometry" />
        </mxCell>
        <mxCell id="lHrtD9bcTlEtg_5Hjy0B-57" value="" style="group" parent="1" vertex="1" connectable="0">
          <mxGeometry x="320" y="580" width="380" height="60" as="geometry" />
        </mxCell>
        <mxCell id="lHrtD9bcTlEtg_5Hjy0B-35" value="" style="shape=parallelogram;perimeter=parallelogramPerimeter;whiteSpace=wrap;html=1;fixedSize=1;fillColor=none;" parent="lHrtD9bcTlEtg_5Hjy0B-57" vertex="1">
          <mxGeometry width="40" height="60" as="geometry" />
        </mxCell>
        <mxCell id="lHrtD9bcTlEtg_5Hjy0B-36" value="" style="shape=parallelogram;perimeter=parallelogramPerimeter;whiteSpace=wrap;html=1;fixedSize=1;fillColor=none;" parent="lHrtD9bcTlEtg_5Hjy0B-57" vertex="1">
          <mxGeometry x="20" width="40" height="60" as="geometry" />
        </mxCell>
        <mxCell id="lHrtD9bcTlEtg_5Hjy0B-37" value="" style="shape=parallelogram;perimeter=parallelogramPerimeter;whiteSpace=wrap;html=1;fixedSize=1;fillColor=none;" parent="lHrtD9bcTlEtg_5Hjy0B-57" vertex="1">
          <mxGeometry x="80" width="220" height="60" as="geometry" />
        </mxCell>
        <mxCell id="lHrtD9bcTlEtg_5Hjy0B-38" value="" style="shape=parallelogram;perimeter=parallelogramPerimeter;whiteSpace=wrap;html=1;fixedSize=1;fillColor=none;" parent="lHrtD9bcTlEtg_5Hjy0B-57" vertex="1">
          <mxGeometry x="320" width="40" height="60" as="geometry" />
        </mxCell>
        <mxCell id="lHrtD9bcTlEtg_5Hjy0B-39" value="" style="shape=parallelogram;perimeter=parallelogramPerimeter;whiteSpace=wrap;html=1;fixedSize=1;fillColor=none;" parent="lHrtD9bcTlEtg_5Hjy0B-57" vertex="1">
          <mxGeometry x="340" width="40" height="60" as="geometry" />
        </mxCell>
        <mxCell id="lHrtD9bcTlEtg_5Hjy0B-49" value="" style="shape=parallelogram;perimeter=parallelogramPerimeter;whiteSpace=wrap;html=1;fixedSize=1;fillColor=none;" parent="lHrtD9bcTlEtg_5Hjy0B-57" vertex="1">
          <mxGeometry x="280" width="40" height="60" as="geometry" />
        </mxCell>
        <mxCell id="lHrtD9bcTlEtg_5Hjy0B-50" value="" style="shape=parallelogram;perimeter=parallelogramPerimeter;whiteSpace=wrap;html=1;fixedSize=1;fillColor=none;" parent="lHrtD9bcTlEtg_5Hjy0B-57" vertex="1">
          <mxGeometry x="300" width="40" height="60" as="geometry" />
        </mxCell>
        <mxCell id="lHrtD9bcTlEtg_5Hjy0B-53" value="" style="shape=parallelogram;perimeter=parallelogramPerimeter;whiteSpace=wrap;html=1;fixedSize=1;fillColor=none;" parent="lHrtD9bcTlEtg_5Hjy0B-57" vertex="1">
          <mxGeometry x="40" width="40" height="60" as="geometry" />
        </mxCell>
        <mxCell id="lHrtD9bcTlEtg_5Hjy0B-54" value="" style="shape=parallelogram;perimeter=parallelogramPerimeter;whiteSpace=wrap;html=1;fixedSize=1;fillColor=none;" parent="lHrtD9bcTlEtg_5Hjy0B-57" vertex="1">
          <mxGeometry x="60" width="40" height="60" as="geometry" />
        </mxCell>
        <mxCell id="lHrtD9bcTlEtg_5Hjy0B-40" value="" style="shape=parallelogram;perimeter=parallelogramPerimeter;whiteSpace=wrap;html=1;fixedSize=1;fillColor=none;" parent="1" vertex="1">
          <mxGeometry x="320" y="700" width="40" height="60" as="geometry" />
        </mxCell>
        <mxCell id="lHrtD9bcTlEtg_5Hjy0B-41" value="" style="shape=parallelogram;perimeter=parallelogramPerimeter;whiteSpace=wrap;html=1;fixedSize=1;fillColor=none;" parent="1" vertex="1">
          <mxGeometry x="340" y="700" width="40" height="60" as="geometry" />
        </mxCell>
        <mxCell id="lHrtD9bcTlEtg_5Hjy0B-42" value="" style="shape=parallelogram;perimeter=parallelogramPerimeter;whiteSpace=wrap;html=1;fixedSize=1;fillColor=none;" parent="1" vertex="1">
          <mxGeometry x="400" y="700" width="280" height="60" as="geometry" />
        </mxCell>
        <mxCell id="lHrtD9bcTlEtg_5Hjy0B-43" value="" style="shape=parallelogram;perimeter=parallelogramPerimeter;whiteSpace=wrap;html=1;fixedSize=1;fillColor=none;" parent="1" vertex="1">
          <mxGeometry x="700" y="700" width="40" height="60" as="geometry" />
        </mxCell>
        <mxCell id="lHrtD9bcTlEtg_5Hjy0B-44" value="" style="shape=parallelogram;perimeter=parallelogramPerimeter;whiteSpace=wrap;html=1;fixedSize=1;fillColor=none;" parent="1" vertex="1">
          <mxGeometry x="720" y="700" width="40" height="60" as="geometry" />
        </mxCell>
        <mxCell id="lHrtD9bcTlEtg_5Hjy0B-59" value="" style="shape=parallelogram;perimeter=parallelogramPerimeter;whiteSpace=wrap;html=1;fixedSize=1;fillColor=none;" parent="1" vertex="1">
          <mxGeometry x="360" y="700" width="40" height="60" as="geometry" />
        </mxCell>
        <mxCell id="lHrtD9bcTlEtg_5Hjy0B-60" value="" style="shape=parallelogram;perimeter=parallelogramPerimeter;whiteSpace=wrap;html=1;fixedSize=1;fillColor=none;" parent="1" vertex="1">
          <mxGeometry x="380" y="700" width="40" height="60" as="geometry" />
        </mxCell>
        <mxCell id="lHrtD9bcTlEtg_5Hjy0B-61" value="" style="shape=parallelogram;perimeter=parallelogramPerimeter;whiteSpace=wrap;html=1;fixedSize=1;fillColor=none;" parent="1" vertex="1">
          <mxGeometry x="660" y="700" width="40" height="60" as="geometry" />
        </mxCell>
        <mxCell id="lHrtD9bcTlEtg_5Hjy0B-62" value="" style="shape=parallelogram;perimeter=parallelogramPerimeter;whiteSpace=wrap;html=1;fixedSize=1;fillColor=none;" parent="1" vertex="1">
          <mxGeometry x="680" y="700" width="40" height="60" as="geometry" />
        </mxCell>
        <mxCell id="lHrtD9bcTlEtg_5Hjy0B-65" value="" style="shape=parallelogram;perimeter=parallelogramPerimeter;whiteSpace=wrap;html=1;fixedSize=1;fillColor=none;" parent="1" vertex="1">
          <mxGeometry x="320" y="820" width="40" height="60" as="geometry" />
        </mxCell>
        <mxCell id="lHrtD9bcTlEtg_5Hjy0B-66" value="" style="shape=parallelogram;perimeter=parallelogramPerimeter;whiteSpace=wrap;html=1;fixedSize=1;fillColor=none;" parent="1" vertex="1">
          <mxGeometry x="340" y="820" width="40" height="60" as="geometry" />
        </mxCell>
        <mxCell id="lHrtD9bcTlEtg_5Hjy0B-67" value="" style="shape=parallelogram;perimeter=parallelogramPerimeter;whiteSpace=wrap;html=1;fixedSize=1;fillColor=none;" parent="1" vertex="1">
          <mxGeometry x="400" y="820" width="380" height="60" as="geometry" />
        </mxCell>
        <mxCell id="lHrtD9bcTlEtg_5Hjy0B-68" value="" style="shape=parallelogram;perimeter=parallelogramPerimeter;whiteSpace=wrap;html=1;fixedSize=1;fillColor=none;" parent="1" vertex="1">
          <mxGeometry x="800" y="820" width="40" height="60" as="geometry" />
        </mxCell>
        <mxCell id="lHrtD9bcTlEtg_5Hjy0B-69" value="" style="shape=parallelogram;perimeter=parallelogramPerimeter;whiteSpace=wrap;html=1;fixedSize=1;fillColor=none;" parent="1" vertex="1">
          <mxGeometry x="820" y="820" width="40" height="60" as="geometry" />
        </mxCell>
        <mxCell id="lHrtD9bcTlEtg_5Hjy0B-70" value="" style="shape=parallelogram;perimeter=parallelogramPerimeter;whiteSpace=wrap;html=1;fixedSize=1;fillColor=none;" parent="1" vertex="1">
          <mxGeometry x="360" y="820" width="40" height="60" as="geometry" />
        </mxCell>
        <mxCell id="lHrtD9bcTlEtg_5Hjy0B-71" value="" style="shape=parallelogram;perimeter=parallelogramPerimeter;whiteSpace=wrap;html=1;fixedSize=1;fillColor=none;" parent="1" vertex="1">
          <mxGeometry x="380" y="820" width="40" height="60" as="geometry" />
        </mxCell>
        <mxCell id="lHrtD9bcTlEtg_5Hjy0B-72" value="" style="shape=parallelogram;perimeter=parallelogramPerimeter;whiteSpace=wrap;html=1;fixedSize=1;fillColor=none;" parent="1" vertex="1">
          <mxGeometry x="760" y="820" width="40" height="60" as="geometry" />
        </mxCell>
        <mxCell id="lHrtD9bcTlEtg_5Hjy0B-73" value="" style="shape=parallelogram;perimeter=parallelogramPerimeter;whiteSpace=wrap;html=1;fixedSize=1;fillColor=none;" parent="1" vertex="1">
          <mxGeometry x="780" y="820" width="40" height="60" as="geometry" />
        </mxCell>
        <mxCell id="lHrtD9bcTlEtg_5Hjy0B-74" value="" style="shape=parallelogram;perimeter=parallelogramPerimeter;whiteSpace=wrap;html=1;fixedSize=1;fillColor=none;" parent="1" vertex="1">
          <mxGeometry x="320" y="940" width="40" height="60" as="geometry" />
        </mxCell>
        <mxCell id="lHrtD9bcTlEtg_5Hjy0B-75" value="" style="shape=parallelogram;perimeter=parallelogramPerimeter;whiteSpace=wrap;html=1;fixedSize=1;fillColor=none;" parent="1" vertex="1">
          <mxGeometry x="340" y="940" width="40" height="60" as="geometry" />
        </mxCell>
        <mxCell id="lHrtD9bcTlEtg_5Hjy0B-76" value="" style="shape=parallelogram;perimeter=parallelogramPerimeter;whiteSpace=wrap;html=1;fixedSize=1;fillColor=none;" parent="1" vertex="1">
          <mxGeometry x="400" y="940" width="480" height="60" as="geometry" />
        </mxCell>
        <mxCell id="lHrtD9bcTlEtg_5Hjy0B-77" value="" style="shape=parallelogram;perimeter=parallelogramPerimeter;whiteSpace=wrap;html=1;fixedSize=1;fillColor=none;" parent="1" vertex="1">
          <mxGeometry x="900" y="940" width="40" height="60" as="geometry" />
        </mxCell>
        <mxCell id="lHrtD9bcTlEtg_5Hjy0B-78" value="" style="shape=parallelogram;perimeter=parallelogramPerimeter;whiteSpace=wrap;html=1;fixedSize=1;fillColor=none;" parent="1" vertex="1">
          <mxGeometry x="920" y="940" width="40" height="60" as="geometry" />
        </mxCell>
        <mxCell id="lHrtD9bcTlEtg_5Hjy0B-79" value="" style="shape=parallelogram;perimeter=parallelogramPerimeter;whiteSpace=wrap;html=1;fixedSize=1;fillColor=none;" parent="1" vertex="1">
          <mxGeometry x="360" y="940" width="40" height="60" as="geometry" />
        </mxCell>
        <mxCell id="lHrtD9bcTlEtg_5Hjy0B-80" value="" style="shape=parallelogram;perimeter=parallelogramPerimeter;whiteSpace=wrap;html=1;fixedSize=1;fillColor=none;" parent="1" vertex="1">
          <mxGeometry x="380" y="940" width="40" height="60" as="geometry" />
        </mxCell>
        <mxCell id="lHrtD9bcTlEtg_5Hjy0B-81" value="" style="shape=parallelogram;perimeter=parallelogramPerimeter;whiteSpace=wrap;html=1;fixedSize=1;fillColor=none;" parent="1" vertex="1">
          <mxGeometry x="860" y="940" width="40" height="60" as="geometry" />
        </mxCell>
        <mxCell id="lHrtD9bcTlEtg_5Hjy0B-82" value="" style="shape=parallelogram;perimeter=parallelogramPerimeter;whiteSpace=wrap;html=1;fixedSize=1;fillColor=none;" parent="1" vertex="1">
          <mxGeometry x="880" y="940" width="40" height="60" as="geometry" />
        </mxCell>
        <mxCell id="lHrtD9bcTlEtg_5Hjy0B-83" value="" style="shape=parallelogram;perimeter=parallelogramPerimeter;whiteSpace=wrap;html=1;fixedSize=1;fillColor=none;" parent="1" vertex="1">
          <mxGeometry x="320" y="1140" width="40" height="60" as="geometry" />
        </mxCell>
        <mxCell id="lHrtD9bcTlEtg_5Hjy0B-84" value="" style="shape=parallelogram;perimeter=parallelogramPerimeter;whiteSpace=wrap;html=1;fixedSize=1;fillColor=none;" parent="1" vertex="1">
          <mxGeometry x="340" y="1140" width="40" height="60" as="geometry" />
        </mxCell>
        <mxCell id="lHrtD9bcTlEtg_5Hjy0B-85" value="" style="shape=parallelogram;perimeter=parallelogramPerimeter;whiteSpace=wrap;html=1;fixedSize=1;fillColor=none;" parent="1" vertex="1">
          <mxGeometry x="400" y="1140" width="480" height="60" as="geometry" />
        </mxCell>
        <mxCell id="lHrtD9bcTlEtg_5Hjy0B-86" value="" style="shape=parallelogram;perimeter=parallelogramPerimeter;whiteSpace=wrap;html=1;fixedSize=1;fillColor=none;" parent="1" vertex="1">
          <mxGeometry x="900" y="1140" width="40" height="60" as="geometry" />
        </mxCell>
        <mxCell id="lHrtD9bcTlEtg_5Hjy0B-87" value="" style="shape=parallelogram;perimeter=parallelogramPerimeter;whiteSpace=wrap;html=1;fixedSize=1;fillColor=none;" parent="1" vertex="1">
          <mxGeometry x="920" y="1140" width="40" height="60" as="geometry" />
        </mxCell>
        <mxCell id="lHrtD9bcTlEtg_5Hjy0B-88" value="" style="shape=parallelogram;perimeter=parallelogramPerimeter;whiteSpace=wrap;html=1;fixedSize=1;fillColor=none;" parent="1" vertex="1">
          <mxGeometry x="360" y="1140" width="40" height="60" as="geometry" />
        </mxCell>
        <mxCell id="lHrtD9bcTlEtg_5Hjy0B-89" value="" style="shape=parallelogram;perimeter=parallelogramPerimeter;whiteSpace=wrap;html=1;fixedSize=1;fillColor=none;" parent="1" vertex="1">
          <mxGeometry x="380" y="1140" width="40" height="60" as="geometry" />
        </mxCell>
        <mxCell id="lHrtD9bcTlEtg_5Hjy0B-90" value="" style="shape=parallelogram;perimeter=parallelogramPerimeter;whiteSpace=wrap;html=1;fixedSize=1;fillColor=none;" parent="1" vertex="1">
          <mxGeometry x="860" y="1140" width="40" height="60" as="geometry" />
        </mxCell>
        <mxCell id="lHrtD9bcTlEtg_5Hjy0B-91" value="" style="shape=parallelogram;perimeter=parallelogramPerimeter;whiteSpace=wrap;html=1;fixedSize=1;fillColor=none;" parent="1" vertex="1">
          <mxGeometry x="880" y="1140" width="40" height="60" as="geometry" />
        </mxCell>
      </root>
    </mxGraphModel>
  </diagram>
</mxfile>
